Coordinates
version=1
nRows=24
nColumns=19
inDegrees=yes

Units are S.I. units (second, meters, Newtons, ...)
If the header above contains a line with 'inDegrees', this indicates whether rotational values are in degrees (yes) or radians (no).

endheader
time	pelvis_tilt	pelvis_list	pelvis_rotation	pelvis_tx	pelvis_ty	pelvis_tz	hip_flexion_r	hip_adduction_r	hip_rotation_r	knee_angle_r	knee_angle_r_beta	ankle_angle_r	hip_flexion_l	hip_adduction_l	hip_rotation_l	knee_angle_l	knee_angle_l_beta	ankle_angle_l
     15.28666667	     -6.44816698	     -6.62522843	     -6.64866538	      2.28892445	      0.99287788	      1.00878086	     31.04306211	     11.22703635	     -2.02943713	     16.96043006	      0.29601535	      2.15814164	    -10.20051280	    -10.20067823	    -16.26339724	     66.24313338	      1.15616078	    -16.58452429
     15.29333333	     -5.67829000	     -7.24568405	     -7.29617552	      2.28756341	      0.98984711	      1.00981282	     30.33431943	     11.78300791	     -3.15975902	     19.99930555	      0.34905373	      2.64481791	     -9.40703154	    -11.63201272	    -17.38658584	     70.41268081	      1.22893312	    -16.00474227
     15.30000000	     -5.11022154	     -7.79346914	     -7.86972047	      2.28602234	      0.98628988	      1.01084704	     29.89344007	     12.17944664	     -4.24163568	     23.36762988	      0.40784208	      3.44611670	     -8.27667793	    -13.11081673	    -18.30456034	     74.50007776	      1.30027165	    -15.35087124
     15.30666667	     -5.57695519	     -7.88954400	     -8.28998084	      2.28421905	      0.98153125	      1.01176536	     30.66466417	     12.11029462	     -5.16593708	     27.01871014	      0.47156545	      4.46619442	     -5.59619140	    -14.14822149	    -18.38809153	     78.62423195	      1.37225172	    -14.59570901
     15.31333333	     -4.78659542	     -8.36759351	     -8.63956023	      2.28238787	      0.97830584	      1.01244135	     29.77492141	     12.32891244	     -5.67598430	     30.29827992	      0.52880474	      5.93621210	     -4.43356888	    -15.49317520	    -18.71820057	     82.27972872	      1.43605217	    -13.74440371
     15.32000000	     -4.72437695	     -8.52845157	     -8.80387574	      2.28028906	      0.97446813	      1.01293892	     29.59826583	     12.27098908	     -5.95812446	     33.45549306	      0.58390851	      7.72497696	     -2.06638259	    -16.46836359	    -18.31919199	     85.85891684	      1.49852079	    -12.86055766
     15.32666667	     -4.28228425	     -8.77853247	     -8.85956748	      2.27802897	      0.97146731	      1.01325610	     28.75342343	     12.31993582	     -5.89147453	     36.19203747	      0.63167022	      9.83785773	     -0.00596869	    -17.43437092	    -17.76149319	     89.10458653	      1.55516841	    -11.95028017
     15.33333333	     -3.86174685	     -8.96927279	     -8.79001797	      2.27561345	      0.96895403	      1.01339473	     27.68447951	     12.34505450	     -5.61578020	     38.47931519	      0.67159074	     12.15004483	      2.29079555	    -18.21838146	    -16.87513987	     92.05897746	      1.60673226	    -11.04004792
     15.34000000	     -3.39559728	     -9.10651029	     -8.55697399	      2.27310781	      0.96709126	      1.01331065	     26.28520325	     12.32014080	     -5.22422965	     40.24110846	      0.70233984	     14.53787895	      4.74527560	    -18.79550003	    -15.67695504	     94.69304514	      1.65270542	    -10.13071849
     15.34666667	     -3.12024439	     -9.12692910	     -8.25380929	      2.27062470	      0.96570331	      1.01312763	     24.82209161	     12.22577871	     -4.73774724	     41.51581311	      0.72458763	     17.02099082	      7.57351775	    -19.07178400	    -14.22058430	     96.95362758	      1.69216002	     -9.31302039
     15.35333333	     -2.96865458	     -9.00748477	     -7.85649713	      2.26824464	      0.96486082	      1.01277218	     23.19721241	     11.99449416	     -4.20580306	     42.24132568	      0.73725021	     19.39196695	     10.65398061	    -19.04711554	    -12.62661485	     98.83856272	      1.72505835	     -8.59219923
     15.36000000	     -2.80969152	     -8.77222460	     -7.33189472	      2.26612303	      0.96471279	      1.01230081	     21.26570659	     11.62901496	     -3.70227153	     42.42233671	      0.74040945	     21.58507273	     13.75972057	    -18.70686117	    -10.95286452	    100.28628002	      1.75032578	     -7.86963257
     15.36666667	     -2.94857322	     -8.35828136	     -6.79448104	      2.26431884	      0.96488528	      1.01182827	     19.39416873	     11.11692903	     -3.18956994	     42.12907216	      0.73529102	     23.49453274	     17.16051449	    -18.03626788	     -9.31259937	    101.31268050	      1.76823985	     -7.25838693
     15.37333333	     -2.95481050	     -7.80573100	     -6.11617175	      2.26310341	      0.96588760	      1.01125629	     17.07210119	     10.40933411	     -2.78313884	     41.28657237	      0.72058662	     25.04336276	     20.26962097	    -17.07512078	     -7.81451722	    101.82886864	      1.77724903	     -6.68021434
     15.38000000	     -3.11708401	     -7.13183508	     -5.47681541	      2.26231073	      0.96729007	      1.01075788	     14.69644716	      9.60817998	     -2.37978041	     40.03770606	      0.69878980	     26.09232209	     23.34869837	    -15.85982961	     -6.50549606	    101.89949811	      1.77848175	     -6.14625539
     15.38666667	     -3.33854690	     -6.29833998	     -4.80910548	      2.26212447	      0.96913611	      1.01033515	     12.17110090	      8.65236775	     -2.03006160	     38.39923726	      0.67019312	     26.67186445	     26.23969916	    -14.46104215	     -5.49655089	    101.50934990	      1.77167238	     -5.64631962
     15.39333333	     -3.88715488	     -5.34416350	     -4.63812417	      2.26270086	      0.97116491	      1.01061042	      9.81282628	      7.71120616	     -1.22825354	     36.45860040	      0.63632262	     26.63404499	     28.99482446	    -13.32582081	     -5.33388374	    100.64015173	      1.75650201	     -5.07323062
     15.40000000	     -3.81860778	     -4.28410217	     -3.46676082	      2.26356893	      0.97424645	      1.00966451	      6.62410746	      6.40501721	     -1.58431460	     34.07171978	      0.59466369	     25.97267106	     31.18618401	    -11.30673906	     -4.38327833	     99.39409275	      1.73475418	     -4.67358472
     15.40666667	     -3.85941436	     -3.16231632	     -2.85523269	      2.26512242	      0.97758808	      1.00944884	      3.42904396	      5.17943395	     -1.47530952	     31.45508627	      0.54899482	     24.60434587	     32.96534465	     -9.71405394	     -4.32766425	     97.71628455	      1.70547090	     -4.14278545
     15.41333333	     -3.91422948	     -1.98850857	     -2.38941463	      2.26710154	      0.98120430	      1.00935733	      0.19839532	      3.92381367	     -1.36364485	     28.67740672	      0.50051517	     22.53862235	     34.46701450	     -8.21935239	     -4.62928429	     95.69041263	      1.67011276	     -3.58713976
     15.42000000	     -3.99372847	     -0.80243653	     -2.06645816	      2.26939822	      0.98501121	      1.00935046	     -2.98596666	      2.66310646	     -1.27279290	     25.82937490	      0.45080764	     19.78287210	     35.73672026	     -6.84966587	     -5.21706010	     93.34579642	      1.62919149	     -3.02144828
     15.42666667	     -3.91819894	      0.37196891	     -1.95570879	      2.27193018	      0.98911114	      1.00952312	     -6.27114740	      1.38812295	     -1.17874498	     22.96866622	      0.40087885	     16.42731991	     36.57753452	     -5.72176148	     -6.17353255	     90.70657435	      1.58312838	     -2.41697212
     15.43333333	     -4.17419101	      1.41353599	     -1.80323070	      2.27454079	      0.99284079	      1.00947852	     -9.05389571	      0.24036133	     -1.40503011	     20.26268704	      0.35365060	     12.51811941	     37.67614653	     -4.69071422	     -7.06085976	     87.88818727	      1.53393824	     -1.84099394
     15.44000000	     -4.34979116	      2.34971726	     -1.87407211	      2.27719140	      0.99666581	      1.00953581	    -11.72226322	     -0.84492463	     -1.57102558	     17.76633857	      0.31008110	      8.21817451	     38.48697387	     -3.95933214	     -8.20881017	     84.84277382	      1.48078575	     -1.26250168
